<mxfile host="app.diagrams.net" modified="2024-02-14T10:54:15.061Z" agent="Mozilla/5.0 (Windows NT 10.0; Win64; x64) AppleWebKit/537.36 (KHTML, like Gecko) Chrome/121.0.0.0 Safari/537.36 Edg/121.0.0.0" etag="vUyzI3ejrAqaNSS9TqrC" version="23.1.4" type="github">
  <diagram id="C5RBs43oDa-KdzZeNtuy" name="Page-1">
    <mxGraphModel dx="792" dy="453" grid="1" gridSize="10" guides="1" tooltips="1" connect="1" arrows="1" fold="1" page="1" pageScale="1" pageWidth="827" pageHeight="1169" math="0" shadow="0">
      <root>
        <mxCell id="WIyWlLk6GJQsqaUBKTNV-0" />
        <mxCell id="WIyWlLk6GJQsqaUBKTNV-1" parent="WIyWlLk6GJQsqaUBKTNV-0" />
        <mxCell id="ecE-lbtQEkyAknoPnSGp-34" value="Bi-lstm" style="swimlane;whiteSpace=wrap;html=1;fillColor=#60a917;fontColor=#ffffff;strokeColor=#2D7600;startSize=30;" vertex="1" parent="WIyWlLk6GJQsqaUBKTNV-1">
          <mxGeometry x="60" y="210" width="280" height="120" as="geometry" />
        </mxCell>
        <mxCell id="ecE-lbtQEkyAknoPnSGp-71" style="edgeStyle=orthogonalEdgeStyle;rounded=0;orthogonalLoop=1;jettySize=auto;html=1;exitX=1;exitY=0.5;exitDx=0;exitDy=0;endSize=0;startSize=7;jumpSize=6;strokeWidth=4;fillColor=#60a917;strokeColor=#60a917;" edge="1" parent="ecE-lbtQEkyAknoPnSGp-34">
          <mxGeometry relative="1" as="geometry">
            <mxPoint x="56" y="54.86" as="sourcePoint" />
            <mxPoint x="80" y="54.99" as="targetPoint" />
            <Array as="points">
              <mxPoint x="80" y="54.86" />
            </Array>
          </mxGeometry>
        </mxCell>
        <mxCell id="ecE-lbtQEkyAknoPnSGp-35" value="lstm &lt;br&gt;cell" style="rounded=1;whiteSpace=wrap;html=1;fillColor=#60a917;strokeColor=#2D7600;fontColor=#ffffff;" vertex="1" parent="ecE-lbtQEkyAknoPnSGp-34">
          <mxGeometry x="10" y="40" width="40" height="30" as="geometry" />
        </mxCell>
        <mxCell id="ecE-lbtQEkyAknoPnSGp-76" value="lstm cell" style="rounded=1;whiteSpace=wrap;html=1;fillColor=#60a917;strokeColor=#2D7600;fontColor=#ffffff;" vertex="1" parent="ecE-lbtQEkyAknoPnSGp-34">
          <mxGeometry x="150" y="80" width="40" height="30" as="geometry" />
        </mxCell>
        <mxCell id="ecE-lbtQEkyAknoPnSGp-77" value="lstm cell" style="rounded=1;whiteSpace=wrap;html=1;fillColor=#60a917;strokeColor=#2D7600;fontColor=#ffffff;" vertex="1" parent="ecE-lbtQEkyAknoPnSGp-34">
          <mxGeometry x="90" y="40" width="40" height="30" as="geometry" />
        </mxCell>
        <mxCell id="ecE-lbtQEkyAknoPnSGp-78" value="lstm cell" style="rounded=1;whiteSpace=wrap;html=1;fillColor=#60a917;strokeColor=#2D7600;fontColor=#ffffff;" vertex="1" parent="ecE-lbtQEkyAknoPnSGp-34">
          <mxGeometry x="230" y="80" width="40" height="30" as="geometry" />
        </mxCell>
        <mxCell id="ecE-lbtQEkyAknoPnSGp-82" style="edgeStyle=orthogonalEdgeStyle;rounded=0;orthogonalLoop=1;jettySize=auto;html=1;exitX=1;exitY=0.5;exitDx=0;exitDy=0;endSize=0;startSize=7;jumpSize=6;strokeWidth=4;fillColor=#60a917;strokeColor=#60a917;" edge="1" parent="ecE-lbtQEkyAknoPnSGp-34">
          <mxGeometry relative="1" as="geometry">
            <mxPoint x="140" y="54.860000000000014" as="sourcePoint" />
            <mxPoint x="164" y="54.99000000000001" as="targetPoint" />
            <Array as="points">
              <mxPoint x="164" y="54.860000000000014" />
            </Array>
          </mxGeometry>
        </mxCell>
        <mxCell id="ecE-lbtQEkyAknoPnSGp-83" value="" style="shape=waypoint;sketch=0;fillStyle=solid;size=6;pointerEvents=1;points=[];fillColor=#60a917;resizable=0;rotatable=0;perimeter=centerPerimeter;snapToPoint=1;fontColor=#ffffff;strokeColor=#2D7600;" vertex="1" parent="ecE-lbtQEkyAknoPnSGp-34">
          <mxGeometry x="160" y="45" width="20" height="20" as="geometry" />
        </mxCell>
        <mxCell id="ecE-lbtQEkyAknoPnSGp-84" value="" style="shape=waypoint;sketch=0;fillStyle=solid;size=6;pointerEvents=1;points=[];fillColor=#60a917;resizable=0;rotatable=0;perimeter=centerPerimeter;snapToPoint=1;fontColor=#ffffff;strokeColor=#2D7600;" vertex="1" parent="ecE-lbtQEkyAknoPnSGp-34">
          <mxGeometry x="170" y="45" width="20" height="20" as="geometry" />
        </mxCell>
        <mxCell id="ecE-lbtQEkyAknoPnSGp-85" value="" style="shape=waypoint;sketch=0;fillStyle=solid;size=6;pointerEvents=1;points=[];fillColor=#60a917;resizable=0;rotatable=0;perimeter=centerPerimeter;snapToPoint=1;fontColor=#ffffff;strokeColor=#2D7600;" vertex="1" parent="ecE-lbtQEkyAknoPnSGp-34">
          <mxGeometry x="180" y="45" width="20" height="20" as="geometry" />
        </mxCell>
        <mxCell id="ecE-lbtQEkyAknoPnSGp-86" value="lstm cell" style="rounded=1;whiteSpace=wrap;html=1;fillColor=#60a917;strokeColor=#2D7600;fontColor=#ffffff;" vertex="1" parent="ecE-lbtQEkyAknoPnSGp-34">
          <mxGeometry x="230" y="40" width="40" height="30" as="geometry" />
        </mxCell>
        <mxCell id="ecE-lbtQEkyAknoPnSGp-87" style="edgeStyle=orthogonalEdgeStyle;rounded=0;orthogonalLoop=1;jettySize=auto;html=1;exitX=1;exitY=0.5;exitDx=0;exitDy=0;endSize=0;startSize=7;jumpSize=6;strokeWidth=4;fillColor=#60a917;strokeColor=#60a917;" edge="1" parent="ecE-lbtQEkyAknoPnSGp-34">
          <mxGeometry relative="1" as="geometry">
            <mxPoint x="200" y="54.860000000000014" as="sourcePoint" />
            <mxPoint x="224" y="54.99000000000001" as="targetPoint" />
            <Array as="points">
              <mxPoint x="224" y="54.860000000000014" />
            </Array>
          </mxGeometry>
        </mxCell>
        <mxCell id="ecE-lbtQEkyAknoPnSGp-88" style="edgeStyle=orthogonalEdgeStyle;rounded=0;orthogonalLoop=1;jettySize=auto;html=1;exitX=1;exitY=0.5;exitDx=0;exitDy=0;endSize=0;startSize=7;jumpSize=6;strokeWidth=4;fillColor=#60a917;strokeColor=#60a917;" edge="1" parent="ecE-lbtQEkyAknoPnSGp-34">
          <mxGeometry relative="1" as="geometry">
            <mxPoint x="224" y="94.99000000000001" as="sourcePoint" />
            <mxPoint x="200" y="94.86000000000001" as="targetPoint" />
            <Array as="points">
              <mxPoint x="224" y="94.86000000000001" />
            </Array>
          </mxGeometry>
        </mxCell>
        <mxCell id="ecE-lbtQEkyAknoPnSGp-93" style="edgeStyle=orthogonalEdgeStyle;rounded=0;orthogonalLoop=1;jettySize=auto;html=1;exitX=1;exitY=0.5;exitDx=0;exitDy=0;endSize=0;startSize=7;jumpSize=6;strokeWidth=4;fillColor=#60a917;strokeColor=#60a917;" edge="1" parent="ecE-lbtQEkyAknoPnSGp-34">
          <mxGeometry relative="1" as="geometry">
            <mxPoint x="144" y="94.99000000000001" as="sourcePoint" />
            <mxPoint x="120" y="94.86000000000001" as="targetPoint" />
            <Array as="points">
              <mxPoint x="144" y="94.86000000000001" />
            </Array>
          </mxGeometry>
        </mxCell>
        <mxCell id="ecE-lbtQEkyAknoPnSGp-94" value="" style="shape=waypoint;sketch=0;fillStyle=solid;size=6;pointerEvents=1;points=[];fillColor=#60a917;resizable=0;rotatable=0;perimeter=centerPerimeter;snapToPoint=1;fontColor=#ffffff;strokeColor=#2D7600;" vertex="1" parent="ecE-lbtQEkyAknoPnSGp-34">
          <mxGeometry x="100" y="85" width="20" height="20" as="geometry" />
        </mxCell>
        <mxCell id="ecE-lbtQEkyAknoPnSGp-95" value="" style="shape=waypoint;sketch=0;fillStyle=solid;size=6;pointerEvents=1;points=[];fillColor=#60a917;resizable=0;rotatable=0;perimeter=centerPerimeter;snapToPoint=1;fontColor=#ffffff;strokeColor=#2D7600;" vertex="1" parent="ecE-lbtQEkyAknoPnSGp-34">
          <mxGeometry x="90" y="85" width="20" height="20" as="geometry" />
        </mxCell>
        <mxCell id="ecE-lbtQEkyAknoPnSGp-96" value="" style="shape=waypoint;sketch=0;fillStyle=solid;size=6;pointerEvents=1;points=[];fillColor=#60a917;resizable=0;rotatable=0;perimeter=centerPerimeter;snapToPoint=1;fontColor=#ffffff;strokeColor=#2D7600;" vertex="1" parent="ecE-lbtQEkyAknoPnSGp-34">
          <mxGeometry x="80" y="85" width="20" height="20" as="geometry" />
        </mxCell>
        <mxCell id="ecE-lbtQEkyAknoPnSGp-97" value="lstm cell" style="rounded=1;whiteSpace=wrap;html=1;fillColor=#60a917;strokeColor=#2D7600;fontColor=#ffffff;" vertex="1" parent="ecE-lbtQEkyAknoPnSGp-34">
          <mxGeometry x="10" y="80" width="40" height="30" as="geometry" />
        </mxCell>
        <mxCell id="ecE-lbtQEkyAknoPnSGp-98" style="edgeStyle=orthogonalEdgeStyle;rounded=0;orthogonalLoop=1;jettySize=auto;html=1;exitX=1;exitY=0.5;exitDx=0;exitDy=0;endSize=0;startSize=7;jumpSize=6;strokeWidth=4;fillColor=#60a917;strokeColor=#60a917;" edge="1" parent="ecE-lbtQEkyAknoPnSGp-34">
          <mxGeometry relative="1" as="geometry">
            <mxPoint x="80" y="94.99000000000001" as="sourcePoint" />
            <mxPoint x="56" y="94.86000000000001" as="targetPoint" />
            <Array as="points">
              <mxPoint x="80" y="94.86000000000001" />
            </Array>
          </mxGeometry>
        </mxCell>
        <mxCell id="ecE-lbtQEkyAknoPnSGp-48" value="Lstm" style="swimlane;whiteSpace=wrap;html=1;fillColor=#1ba1e2;fontColor=#ffffff;strokeColor=#1ba1e2;startSize=30;" vertex="1" parent="WIyWlLk6GJQsqaUBKTNV-1">
          <mxGeometry x="380" y="210" width="270" height="80" as="geometry" />
        </mxCell>
        <mxCell id="ecE-lbtQEkyAknoPnSGp-99" value="lstm cell" style="rounded=1;whiteSpace=wrap;html=1;fillColor=#1ba1e2;strokeColor=#006EAF;fontColor=#ffffff;" vertex="1" parent="ecE-lbtQEkyAknoPnSGp-48">
          <mxGeometry x="10" y="40" width="40" height="30" as="geometry" />
        </mxCell>
        <mxCell id="ecE-lbtQEkyAknoPnSGp-100" style="edgeStyle=orthogonalEdgeStyle;rounded=0;orthogonalLoop=1;jettySize=auto;html=1;exitX=1;exitY=0.5;exitDx=0;exitDy=0;endSize=0;startSize=7;jumpSize=6;strokeWidth=4;fillColor=#1ba1e2;strokeColor=#1ba1e2;" edge="1" parent="ecE-lbtQEkyAknoPnSGp-48">
          <mxGeometry relative="1" as="geometry">
            <mxPoint x="54" y="54.83000000000004" as="sourcePoint" />
            <mxPoint x="78" y="54.960000000000036" as="targetPoint" />
            <Array as="points">
              <mxPoint x="78" y="54.83000000000004" />
            </Array>
          </mxGeometry>
        </mxCell>
        <mxCell id="ecE-lbtQEkyAknoPnSGp-101" value="lstm cell" style="rounded=1;whiteSpace=wrap;html=1;fillColor=#1ba1e2;strokeColor=#006EAF;fontColor=#ffffff;" vertex="1" parent="ecE-lbtQEkyAknoPnSGp-48">
          <mxGeometry x="80" y="40" width="40" height="30" as="geometry" />
        </mxCell>
        <mxCell id="ecE-lbtQEkyAknoPnSGp-102" value="lstm cell" style="rounded=1;whiteSpace=wrap;html=1;fillColor=#1ba1e2;strokeColor=#006EAF;fontColor=#ffffff;" vertex="1" parent="ecE-lbtQEkyAknoPnSGp-48">
          <mxGeometry x="220" y="40" width="40" height="30" as="geometry" />
        </mxCell>
        <mxCell id="ecE-lbtQEkyAknoPnSGp-103" style="edgeStyle=orthogonalEdgeStyle;rounded=0;orthogonalLoop=1;jettySize=auto;html=1;exitX=1;exitY=0.5;exitDx=0;exitDy=0;endSize=0;startSize=7;jumpSize=6;strokeWidth=4;fillColor=#1ba1e2;strokeColor=#1ba1e2;" edge="1" parent="ecE-lbtQEkyAknoPnSGp-48">
          <mxGeometry relative="1" as="geometry">
            <mxPoint x="130" y="54.80000000000007" as="sourcePoint" />
            <mxPoint x="154" y="54.930000000000064" as="targetPoint" />
            <Array as="points">
              <mxPoint x="154" y="54.80000000000007" />
            </Array>
          </mxGeometry>
        </mxCell>
        <mxCell id="ecE-lbtQEkyAknoPnSGp-104" value="" style="shape=waypoint;sketch=0;fillStyle=solid;size=6;pointerEvents=1;points=[];fillColor=#1ba1e2;resizable=0;rotatable=0;perimeter=centerPerimeter;snapToPoint=1;fontColor=#ffffff;strokeColor=#006EAF;" vertex="1" parent="ecE-lbtQEkyAknoPnSGp-48">
          <mxGeometry x="150" y="45" width="20" height="20" as="geometry" />
        </mxCell>
        <mxCell id="ecE-lbtQEkyAknoPnSGp-105" value="" style="shape=waypoint;sketch=0;fillStyle=solid;size=6;pointerEvents=1;points=[];fillColor=#1ba1e2;resizable=0;rotatable=0;perimeter=centerPerimeter;snapToPoint=1;fontColor=#ffffff;strokeColor=#006EAF;" vertex="1" parent="ecE-lbtQEkyAknoPnSGp-48">
          <mxGeometry x="160" y="45" width="20" height="20" as="geometry" />
        </mxCell>
        <mxCell id="ecE-lbtQEkyAknoPnSGp-106" value="" style="shape=waypoint;sketch=0;fillStyle=solid;size=6;pointerEvents=1;points=[];fillColor=#1ba1e2;resizable=0;rotatable=0;perimeter=centerPerimeter;snapToPoint=1;fontColor=#ffffff;strokeColor=#006EAF;" vertex="1" parent="ecE-lbtQEkyAknoPnSGp-48">
          <mxGeometry x="170" y="45" width="20" height="20" as="geometry" />
        </mxCell>
        <mxCell id="ecE-lbtQEkyAknoPnSGp-107" style="edgeStyle=orthogonalEdgeStyle;rounded=0;orthogonalLoop=1;jettySize=auto;html=1;exitX=1;exitY=0.5;exitDx=0;exitDy=0;endSize=0;startSize=7;jumpSize=6;strokeWidth=4;fillColor=#1ba1e2;strokeColor=#1ba1e2;" edge="1" parent="ecE-lbtQEkyAknoPnSGp-48">
          <mxGeometry relative="1" as="geometry">
            <mxPoint x="190" y="54.71000000000009" as="sourcePoint" />
            <mxPoint x="214" y="54.84000000000009" as="targetPoint" />
            <Array as="points">
              <mxPoint x="214" y="54.71000000000009" />
            </Array>
          </mxGeometry>
        </mxCell>
        <mxCell id="ecE-lbtQEkyAknoPnSGp-62" value="" style="shape=curlyBracket;whiteSpace=wrap;html=1;rounded=1;flipH=1;labelPosition=right;verticalLabelPosition=middle;align=left;verticalAlign=middle;fillColor=#008a00;fontColor=#ffffff;strokeColor=#005700;" vertex="1" parent="WIyWlLk6GJQsqaUBKTNV-1">
          <mxGeometry x="240" y="60" width="20" height="90" as="geometry" />
        </mxCell>
        <mxCell id="ecE-lbtQEkyAknoPnSGp-63" value="" style="shape=curlyBracket;whiteSpace=wrap;html=1;rounded=1;labelPosition=left;verticalLabelPosition=middle;align=right;verticalAlign=middle;fillColor=#008a00;fontColor=#ffffff;strokeColor=#005700;" vertex="1" parent="WIyWlLk6GJQsqaUBKTNV-1">
          <mxGeometry x="120" y="60" width="20" height="90" as="geometry" />
        </mxCell>
        <mxCell id="ecE-lbtQEkyAknoPnSGp-65" value="&lt;div style=&quot;&quot;&gt;&lt;font color=&quot;#1a1a1a&quot;&gt;&lt;font style=&quot;background-color: initial; font-size: 14px;&quot;&gt;x&lt;/font&gt;&lt;sub style=&quot;background-color: initial;&quot;&gt;&lt;font style=&quot;font-size: 7px;&quot;&gt;11&lt;/font&gt;&lt;/sub&gt;&lt;/font&gt;&lt;/div&gt;" style="ellipse;whiteSpace=wrap;html=1;aspect=fixed;strokeWidth=1;perimeterSpacing=1;horizontal=1;verticalAlign=bottom;fontSize=9;fillColor=#d5e8d4;strokeColor=#82b366;align=center;" vertex="1" parent="WIyWlLk6GJQsqaUBKTNV-1">
          <mxGeometry x="140" y="70" width="20" height="20" as="geometry" />
        </mxCell>
        <mxCell id="ecE-lbtQEkyAknoPnSGp-109" value="&lt;div style=&quot;&quot;&gt;&lt;font color=&quot;#1a1a1a&quot;&gt;&lt;font style=&quot;background-color: initial; font-size: 14px;&quot;&gt;x&lt;/font&gt;&lt;sub style=&quot;background-color: initial;&quot;&gt;&lt;font style=&quot;font-size: 7px;&quot;&gt;1b&lt;/font&gt;&lt;/sub&gt;&lt;/font&gt;&lt;/div&gt;" style="ellipse;whiteSpace=wrap;html=1;aspect=fixed;strokeWidth=1;perimeterSpacing=1;horizontal=1;verticalAlign=bottom;fontSize=9;fillColor=#d5e8d4;strokeColor=#82b366;align=center;" vertex="1" parent="WIyWlLk6GJQsqaUBKTNV-1">
          <mxGeometry x="140" y="120" width="20" height="20" as="geometry" />
        </mxCell>
        <mxCell id="ecE-lbtQEkyAknoPnSGp-110" value="&lt;div style=&quot;&quot;&gt;&lt;font color=&quot;#1a1a1a&quot;&gt;&lt;font style=&quot;background-color: initial; font-size: 14px;&quot;&gt;x&lt;/font&gt;&lt;sub style=&quot;background-color: initial;&quot;&gt;&lt;font style=&quot;font-size: 7px;&quot;&gt;12&lt;/font&gt;&lt;/sub&gt;&lt;/font&gt;&lt;/div&gt;" style="ellipse;whiteSpace=wrap;html=1;aspect=fixed;strokeWidth=1;perimeterSpacing=1;horizontal=1;verticalAlign=bottom;fontSize=9;fillColor=#d5e8d4;strokeColor=#82b366;align=center;" vertex="1" parent="WIyWlLk6GJQsqaUBKTNV-1">
          <mxGeometry x="170" y="70" width="20" height="20" as="geometry" />
        </mxCell>
        <mxCell id="ecE-lbtQEkyAknoPnSGp-111" value="&lt;div style=&quot;&quot;&gt;&lt;font color=&quot;#1a1a1a&quot;&gt;&lt;font style=&quot;background-color: initial; font-size: 14px;&quot;&gt;x&lt;/font&gt;&lt;span style=&quot;background-color: initial;&quot;&gt;&lt;font style=&quot;font-size: 7px;&quot;&gt;&lt;sub&gt;1T1&lt;/sub&gt;&lt;/font&gt;&lt;/span&gt;&lt;/font&gt;&lt;/div&gt;" style="ellipse;whiteSpace=wrap;html=1;aspect=fixed;strokeWidth=1;perimeterSpacing=1;horizontal=1;verticalAlign=bottom;fontSize=9;fillColor=#d5e8d4;strokeColor=#82b366;align=center;" vertex="1" parent="WIyWlLk6GJQsqaUBKTNV-1">
          <mxGeometry x="220" y="70" width="20" height="20" as="geometry" />
        </mxCell>
        <mxCell id="ecE-lbtQEkyAknoPnSGp-112" value="&lt;div style=&quot;&quot;&gt;&lt;font color=&quot;#1a1a1a&quot;&gt;&lt;font style=&quot;background-color: initial; font-size: 14px;&quot;&gt;x&lt;/font&gt;&lt;sub style=&quot;background-color: initial;&quot;&gt;&lt;font style=&quot;font-size: 7px;&quot;&gt;11&lt;/font&gt;&lt;/sub&gt;&lt;/font&gt;&lt;/div&gt;" style="ellipse;whiteSpace=wrap;html=1;aspect=fixed;strokeWidth=1;perimeterSpacing=1;horizontal=1;verticalAlign=bottom;fontSize=9;fillColor=#d5e8d4;strokeColor=#82b366;align=center;" vertex="1" parent="WIyWlLk6GJQsqaUBKTNV-1">
          <mxGeometry x="170" y="120" width="20" height="20" as="geometry" />
        </mxCell>
        <mxCell id="ecE-lbtQEkyAknoPnSGp-115" value="&lt;font style=&quot;font-size: 20px;&quot;&gt;...&lt;/font&gt;" style="text;html=1;align=center;verticalAlign=middle;resizable=0;points=[];autosize=1;strokeColor=none;fillColor=none;spacing=0;spacingTop=0;" vertex="1" parent="WIyWlLk6GJQsqaUBKTNV-1">
          <mxGeometry x="130" y="85" width="40" height="30" as="geometry" />
        </mxCell>
        <mxCell id="ecE-lbtQEkyAknoPnSGp-116" value="&lt;font style=&quot;font-size: 20px;&quot;&gt;...&lt;/font&gt;" style="text;html=1;align=center;verticalAlign=middle;resizable=0;points=[];autosize=1;strokeColor=none;fillColor=none;" vertex="1" parent="WIyWlLk6GJQsqaUBKTNV-1">
          <mxGeometry x="160" y="80" width="40" height="40" as="geometry" />
        </mxCell>
        <mxCell id="ecE-lbtQEkyAknoPnSGp-117" value="" style="shape=curlyBracket;whiteSpace=wrap;html=1;rounded=1;labelPosition=left;verticalLabelPosition=middle;align=right;verticalAlign=middle;" vertex="1" parent="WIyWlLk6GJQsqaUBKTNV-1">
          <mxGeometry x="50" y="360" width="20" height="60" as="geometry" />
        </mxCell>
        <mxCell id="ecE-lbtQEkyAknoPnSGp-118" value="" style="shape=curlyBracket;whiteSpace=wrap;html=1;rounded=1;flipH=1;labelPosition=right;verticalLabelPosition=middle;align=left;verticalAlign=middle;" vertex="1" parent="WIyWlLk6GJQsqaUBKTNV-1">
          <mxGeometry x="330" y="360" width="20" height="60" as="geometry" />
        </mxCell>
        <mxCell id="ecE-lbtQEkyAknoPnSGp-119" value="" style="shape=curlyBracket;whiteSpace=wrap;html=1;rounded=1;labelPosition=left;verticalLabelPosition=middle;align=right;verticalAlign=middle;" vertex="1" parent="WIyWlLk6GJQsqaUBKTNV-1">
          <mxGeometry x="60" y="370" width="20" height="60" as="geometry" />
        </mxCell>
        <mxCell id="ecE-lbtQEkyAknoPnSGp-121" value="&lt;font style=&quot;font-size: 20px;&quot;&gt;...&lt;/font&gt;" style="text;html=1;align=center;verticalAlign=top;resizable=0;points=[];autosize=1;strokeColor=none;fillColor=none;spacing=-3;" vertex="1" parent="WIyWlLk6GJQsqaUBKTNV-1">
          <mxGeometry x="190" y="60" width="30" height="30" as="geometry" />
        </mxCell>
        <mxCell id="ecE-lbtQEkyAknoPnSGp-122" value="&lt;div style=&quot;&quot;&gt;&lt;font color=&quot;#1a1a1a&quot;&gt;&lt;font style=&quot;background-color: initial; font-size: 14px;&quot;&gt;x&lt;/font&gt;&lt;sub style=&quot;background-color: initial;&quot;&gt;&lt;font style=&quot;font-size: 7px;&quot;&gt;11&lt;/font&gt;&lt;/sub&gt;&lt;/font&gt;&lt;/div&gt;" style="ellipse;whiteSpace=wrap;html=1;aspect=fixed;strokeWidth=1;perimeterSpacing=1;horizontal=1;verticalAlign=bottom;fontSize=9;fillColor=#d5e8d4;strokeColor=#82b366;align=center;" vertex="1" parent="WIyWlLk6GJQsqaUBKTNV-1">
          <mxGeometry x="220" y="120" width="20" height="20" as="geometry" />
        </mxCell>
        <mxCell id="ecE-lbtQEkyAknoPnSGp-123" value="&lt;font style=&quot;font-size: 20px;&quot;&gt;...&lt;/font&gt;" style="text;html=1;align=center;verticalAlign=middle;resizable=0;points=[];autosize=1;strokeColor=none;fillColor=none;" vertex="1" parent="WIyWlLk6GJQsqaUBKTNV-1">
          <mxGeometry x="210" y="80" width="40" height="40" as="geometry" />
        </mxCell>
      </root>
    </mxGraphModel>
  </diagram>
</mxfile>
